#format: frame checksums
#version: 2
#hash: MD5
#extradata 0,                              16, 32fe9f95e57b78773a0fe54c47055a60
#tb 0: 1/25
#media_type 0: video
#codec_id 0: utvideo
#dimensions 0: 352x288
#sar 0: 0/1
#stream#, dts,        pts, duration,     size, hash
0,          0,          0,        1,    59796, dedd9623ead257b98e079c6d0479e5a9
0,          1,          1,        1,    60012, 73ae403590ffc5962ff86b8dcb44ca50
0,          2,          2,        1,    61040, 0c6baa05c0b1e458fceefc7b833edd71
0,          3,          3,        1,    59656, 4d8d13a50efc73f6e6962bb234cc9b89
0,          4,          4,        1,    58592, f9fd7cc56b1874bbe1a554f6150826ed
0,          5,          5,        1,    60248, aa4d8d7f3f5eaead893adce9a7745e1c
0,          6,          6,        1,    60480, 1c972785fefeb3ef6c5899abc75605cc
0,          7,          7,        1,    59888, 6ab8c8eacedbd28b4341ae642f94cd83
0,          8,          8,        1,    60080, 76f3eb46afdb2ebf83bf6aadc7277ddb
0,          9,          9,        1,    60320, 01932335ef686a759b591ea450a7a802
0,         10,         10,        1,    60300, 7a1bc0880154dfae83d5c4832d2a0ef4
0,         11,         11,        1,    60288, 532314d7b508eae13ccb54c021c555eb
0,         12,         12,        1,    59172, 3c307e8f17b27c489f91b609806eeea6
0,         13,         13,        1,    59664, 070dd129e15219ac626e66279c6e7cdf
0,         14,         14,        1,    61004, e6d8023b1c501fabb43e19d1b27e332e
0,         15,         15,        1,    61088, beffd64b5410a5780481945057259830
0,         16,         16,        1,    60072, df2ac66ec962c106d241a9e860bbf845
0,         17,         17,        1,    59876, b4cd630af2b10995be0f46f6c2cb372c
0,         18,         18,        1,    59396, a07393cd44eab3b4c6b2985931d104d7
0,         19,         19,        1,    59072, 763f7702088fe148009a13b34e8dc0ba
0,         20,         20,        1,    58740, 4b3c67d62bda1e1d41ae8b2a08ffc6ed
0,         21,         21,        1,    58584, 7e696d1e2709d4abbf3777cfb891557b
0,         22,         22,        1,    58952, 748cf0ce599b8f6b79e94fd38bd6f471
0,         23,         23,        1,    59696, 369d7dd5403834a99af295ba7f7aec15
0,         24,         24,        1,    60664, a95fc9270a66c79d1777ff6f970fe7cd
0,         25,         25,        1,    59748, a4ae4093c9778f8f817977c1fe210e47
0,         26,         26,        1,    59088, 5afd7ec014f73740095d7b442bce839e
0,         27,         27,        1,    58752, 415bbfa919f86a4d5d39230749099db9
0,         28,         28,        1,    56928, b6efa0547ff592c28c141f78e28fac1d
0,         29,         29,        1,    56960, 9d78613a7511878970cd829809f82a77
0,         30,         30,        1,    58140, fc65008ad890d0ac6b4d31dd87fcb1ba
0,         31,         31,        1,    58980, 51ca202c4696073bbcc59885d6c91a2d
0,         32,         32,        1,    59548, 283da1b559f8a1080df5525266c64963
0,         33,         33,        1,    61248, 2f8a9fe1e7cac20ed716d2408af5faf2
0,         34,         34,        1,    60032, 16c1b04dfa06e5896deb412536f82868
0,         35,         35,        1,    59252, b12c42d343355035e3a80f67eeac29ba
0,         36,         36,        1,    58568, 6958b7ddd22709356136a761bd1e947a
0,         37,         37,        1,    58744, 544f50bf7a513425e0bde91bbb0c1b9f
0,         38,         38,        1,    58280, af0f7e218dedcf8b3a61363cb8b66b80
0,         39,         39,        1,    58236, 85954d2a24834cff1706f64e2937b84f
0,         40,         40,        1,    57308, 9454333132d25fa15363fed1eadb9c35
0,         41,         41,        1,    58964, 534643a08971e5bc1ba11a268dcdb0d0
0,         42,         42,        1,    58800, fd5bc8c4c63f54dc0a062bbb81f464a4
0,         43,         43,        1,    58716, 5e7a23faa930e4f447100a6cfb38181c
0,         44,         44,        1,    58136, 5238fd231b1afdf11760e49341ff57cc
0,         45,         45,        1,    56772, e82b61e4e6cc3088a482372b2f7af61f
0,         46,         46,        1,    55904, 41e9834f48eafd70fe1d2361e9c84da0
0,         47,         47,        1,    56344, 8c31cf8d3d938ec44a99de38cc4eaeea
0,         48,         48,        1,    56396, ebe832913656dbd08f41b90a30360f5b
0,         49,         49,        1,    55480, 65956930a7aacdaab5c65324fce90392
